<svg width="20" height="21" viewBox="0 0 20 21" fill="none" xmlns="http://www.w3.org/2000/svg">
<path d="M12 4.96691C12 4.56159 12.2623 4.21616 12.5588 3.93985C12.8348 3.68269 13 3.35581 13 3C13 2.17157 12.1046 1.5 11 1.5C9.89543 1.5 9 2.17157 9 3C9 3.362 9.17098 3.69406 9.45568 3.95321C9.74658 4.218 10 4.55386 10 4.94722C10 5.50695 9.53506 5.95596 8.97644 5.92075C7.96056 5.85672 6.95522 5.7543 5.96183 5.61495C5.72871 5.58224 5.49377 5.66089 5.32731 5.82734C5.16086 5.9938 5.08221 6.22874 5.11492 6.46186C5.25427 7.45525 5.35669 8.46058 5.42072 9.47646C5.45593 10.0351 5.00693 10.5 4.44721 10.5C4.05385 10.5 3.718 10.2466 3.45322 9.95569C3.19406 9.67099 2.86201 9.5 2.5 9.5C1.67157 9.5 1 10.3954 1 11.5C1 12.6046 1.67157 13.5 2.5 13.5C2.85582 13.5 3.1827 13.3348 3.43986 13.0588C3.71616 12.7623 4.06159 12.5 4.4669 12.5C5.03368 12.5 5.4925 12.9633 5.47094 13.5297C5.42294 14.7907 5.31585 16.0363 5.1524 17.264C5.09796 17.6729 5.38386 18.0489 5.79236 18.1058C6.84158 18.252 7.90341 18.3584 8.97626 18.4236C9.53523 18.4576 10 18.0082 10 17.4481C10 17.0542 9.74616 16.7179 9.45499 16.4526C9.17071 16.1935 9 15.8617 9 15.5C9 14.6716 9.89543 14 11 14C12.1046 14 13 14.6716 13 15.5C13 15.8557 12.8349 16.1826 12.559 16.4397C12.2624 16.7161 12 17.0617 12 17.4671C12 18.0339 12.4632 18.4928 13.0296 18.472C14.3674 18.4229 15.689 18.3097 16.9915 18.1354C17.3267 18.0905 17.5905 17.8268 17.6353 17.4915C17.8097 16.1891 17.9229 14.8674 17.972 13.5296C17.9928 12.9632 17.5339 12.5 16.9671 12.5C16.5617 12.5 16.2161 12.7624 15.9397 13.059C15.6826 13.3349 15.3557 13.5 15 13.5C14.1716 13.5 13.5 12.6046 13.5 11.5C13.5 10.3954 14.1716 9.5 15 9.5C15.3617 9.5 15.6935 9.67071 15.9526 9.955C16.2179 10.2462 16.5542 10.5 16.9481 10.5C17.5081 10.5 17.9575 10.0352 17.9236 9.47628C17.8584 8.40343 17.752 7.34161 17.6058 6.29239C17.5489 5.88389 17.1728 5.59799 16.764 5.65243C15.5363 5.81588 14.2907 5.92297 13.0297 5.97097C12.4633 5.99253 12 5.5337 12 4.96691Z" fill="#FF7700"/>
</svg>
