<svg width="411" height="393" viewBox="0 0 411 393" fill="none" xmlns="http://www.w3.org/2000/svg">
<path d="M197.107 391.994C113.011 390.173 37.6106 339.801 11.4105 259.913C-16.0115 176.299 6.27496 80.9326 78.4352 30.1464C149.375 -19.7803 242.935 -3.20717 312.559 47.9661C383.196 99.8838 430.566 184.975 402.574 268.386C374.464 352.15 285.265 393.904 197.107 391.994ZM99.5321 321.8C165.044 376.901 262.821 368.462 317.923 302.95C373.025 237.438 364.585 139.66 299.073 84.5587C233.561 29.457 135.784 37.8964 80.6819 103.409C25.5804 168.921 34.0198 266.698 99.5321 321.8Z" fill="url(#paint0_radial_64_1048)" fill-opacity="0.2"/>
<defs>
<radialGradient id="paint0_radial_64_1048" cx="0" cy="0" r="1" gradientTransform="matrix(-189.119 -157.361 153.098 -183.986 196.441 228.049)" gradientUnits="userSpaceOnUse">
<stop offset="0.120192" stop-color="#FFCCE5"/>
<stop offset="0.634615" stop-color="#FFA3CF"/>
<stop offset="0.92513" stop-color="#F56CAE"/>
<stop offset="1" stop-color="#F593C2"/>
</radialGradient>
</defs>
</svg>
