<svg width="110" height="110" viewBox="0 0 110 110" fill="none" xmlns="http://www.w3.org/2000/svg">
<rect width="110" height="110" rx="15" fill="white"/>
<path d="M60.0744 51.6478L33.9706 36.6362C25.9923 31.9935 16 37.7969 16 46.9277V77.0283C16 86.2364 25.9923 91.9625 33.9706 87.3971L60.0744 72.3081C67.9752 67.7428 67.9752 56.2906 60.0744 51.6478Z" fill="#00B3B8"/>
<path d="M88.7503 64.9227L84.4233 62.4493C79.6327 59.6667 73.6058 59.6667 68.8152 62.4493L48.3393 74.2754V35.7053L68.8152 47.5314C71.2105 48.9227 73.9149 49.6184 76.6193 49.6184C79.3236 49.6184 82.028 48.9227 84.4233 47.5314L88.7503 45.058C91.3001 43.5894 92.8455 40.9614 92.8455 38.0242C92.8455 35.087 91.3001 32.4589 88.7503 30.9903L60.1613 14.4493C56.8387 12.5169 52.8981 12.5169 49.5756 14.4493C46.2531 16.3816 44.2441 19.7826 44.2441 23.6473V28.5942L39.9171 26.1208C36.5946 24.1884 32.654 24.1884 29.3315 26.1208C26.009 28.0531 24 31.4541 24 35.3188V74.6618C24 78.5266 26.009 81.9275 29.3315 83.8599C31.0314 84.7874 32.8085 85.3285 34.6629 85.3285C36.5174 85.3285 38.2945 84.8647 39.9944 83.8599L44.3214 81.3865V86.3333C44.3214 90.1981 46.3303 93.599 49.6529 95.5314C51.3527 96.4589 53.1299 97 54.9843 97C56.8387 97 58.6159 96.5362 60.3158 95.5314L88.9048 78.9903C91.4547 77.5217 93 74.8937 93 71.9565C92.8455 69.0193 91.3001 66.3913 88.7503 64.9227ZM48.3393 23.6473C48.3393 21.3285 49.5756 19.1643 51.5845 18.0048C53.5935 16.8454 56.0661 16.8454 58.075 18.0048L86.6641 34.5459C87.9003 35.2415 88.673 36.5556 88.673 38.0242C88.673 39.4928 87.9003 40.8068 86.6641 41.5024L82.3371 43.9758C78.7828 45.9855 74.3785 45.9855 70.8242 43.9758L48.3393 30.9903V23.6473ZM37.8309 80.3043C35.8219 81.4638 33.3494 81.4638 31.3404 80.3043C30.353 79.7304 29.5335 78.9072 28.964 77.917C28.3945 76.9267 28.0949 75.8043 28.0952 74.6618V35.3188C28.0952 33 29.3315 30.8358 31.3404 29.6763C32.3449 29.058 33.5039 28.8261 34.5857 28.8261C35.6674 28.8261 36.8264 29.1353 37.8309 29.6763L44.1669 33.3092V76.5942L37.8309 80.3043ZM86.7413 75.4348L58.1523 91.9758C56.1433 93.1353 53.6708 93.1353 51.6618 91.9758C50.6744 91.4019 49.8549 90.5787 49.2854 89.5885C48.7158 88.5982 48.4163 87.4758 48.4166 86.3333V78.9903L70.9787 65.9275C74.533 63.9179 78.9373 63.9179 82.4916 65.9275L86.8186 68.401C88.0549 69.0966 88.8276 70.4106 88.8276 71.8792C88.7503 73.4251 87.9776 74.7391 86.7413 75.4348Z" fill="#0F161F"/>
</svg>
